<svg viewBox="0 0 407.47 488.7" xmlns="http://www.w3.org/2000/svg"><path d="m108.35 474.65c-15.3-4.24-29.05-11.72-41.96-20.72-34.16-23.82-53.2-57.33-61.49-97.48-6.89-33.37-5.89-66.88-.88-100.34 5.68-37.92 15.69-74.69 30.47-110.12 1.18-2.83 2.51-5.6 3.98-8.29 1.74-3.19 4.77-5.16 8.04-3.53 2.33 1.16 4.76 3.92 5.38 6.41 6.04 24.15 15.92 46.37 31.85 65.7 1.52 1.84 2.92 3.79 4.37 5.68l1.32-.84c.18-.88.54-1.76.52-2.63-1.59-63.02 25.47-112.59 72.07-152.81 27.26-23.52 58.06-41.22 91.59-54.25 1.43-.56 2.94-1.58 4.32-1.44 2.82.29 6.18.48 8.22 2.09 2.84 2.24 2.3 5.77.3 8.82-.84 1.28-1.65 2.59-2.46 3.89-15.13 24.22-16.7 49.92-8.42 76.73 6.43 20.83 16.64 39.92 26.8 59.05 13.59 25.61 27.47 51.07 36.69 78.71 1.75 5.25 3.28 10.57 4.48 14.46 6.05-8.56 12.4-17.75 18.97-26.78 5.09-7 5.99-15.11 6.63-23.28.4-5.1.31-10.24.37-15.36.04-4.09.42-7.95 5.07-9.59 4.47-1.57 7.01 1.17 9.49 4.17 18.79 22.69 30.15 48.97 36.9 77.35 9.56 40.25 9.11 80.28-4.97 119.48-18.27 50.87-54.35 84.06-104.47 102.62-32.57 12.06-66.48 16.13-101.03 15.95 6.21-.86 12.43-1.64 18.62-2.58 19.46-2.95 37.83-9.2 54.08-20.32 28.27-19.35 42.78-47.12 45.87-80.69 2-21.75-.58-43.35-9.54-63.49-4.53-10.18-10.82-19.61-16.64-29.18-1.93-3.18-5.15-5.11-9.23-3.65-3.93 1.41-4.58 4.67-4.41 8.32.04.85 0 1.71 0 2.56-.03 11.48-3.15 21.63-12.31 28.97-5.21-11.54-10.23-23.25-15.74-34.72-7.22-15.04-15.35-29.67-22.06-44.93-4.16-9.44-7.16-19.79-4.1-30.27 2.25-7.73 5.59-15.17 8.75-22.61 2.45-5.76-.86-10.83-7.16-10.25-1.83.17-3.69.72-5.4 1.44-28.5 11.94-54.26 27.82-74 52.17-15.54 19.18-25.02 40.79-25.87 65.77-.05 1.37-.44 2.72-.86 5.18-1.29-1.64-1.82-2.25-2.28-2.91-6.94-9.88-11.66-20.77-14.64-32.42-.92-3.61-1.82-6.98-6.43-7.33-5.05-.39-7.41 2.63-8.88 6.8-4.08 11.55-8.77 22.93-12.06 34.7-8.34 29.82-13.1 60.07-8.12 91.14 4.69 29.33 18.02 53.2 43.46 69.55 2.37 1.53 4.53 3.38 6.79 5.09z" fill="#f16822"/><path d="m108.35 474.65c-2.26-1.7-4.42-3.56-6.79-5.09-25.44-16.36-38.77-40.22-43.46-69.55-4.97-31.08-.21-61.32 8.12-91.14 3.29-11.77 7.98-23.15 12.06-34.7 1.47-4.17 3.83-7.19 8.88-6.8 4.61.36 5.5 3.72 6.43 7.33 2.98 11.65 7.7 22.54 14.64 32.42.46.65.99 1.26 2.28 2.91.42-2.46.82-3.81.86-5.18.86-24.98 10.33-46.59 25.87-65.77 19.73-24.35 45.49-40.23 74-52.17 1.71-.71 3.57-1.27 5.4-1.44 6.29-.58 9.6 4.49 7.16 10.25-3.16 7.44-6.5 14.88-8.75 22.61-3.05 10.49-.05 20.83 4.1 30.27 6.72 15.26 14.85 29.88 22.06 44.93 5.51 11.47 10.53 23.18 15.74 34.72 9.17-7.34 12.28-17.49 12.31-28.97 0-.85.04-1.71 0-2.56-.17-3.65.48-6.91 4.41-8.32 4.08-1.46 7.3.47 9.23 3.65 5.81 9.57 12.1 19 16.64 29.18 8.97 20.15 11.55 41.74 9.54 63.49-3.09 33.57-17.59 61.35-45.87 80.69-16.25 11.12-34.62 17.37-54.08 20.32-6.19.94-12.41 1.72-18.62 2.58-26.51 1.63-52.25-1.75-76.98-11.75-.74-.32-1.47-.64-2.21-.97 0 0 .11.07.11.07-1.04-.38-2.09-.76-3.13-1.14 0 0 .05.12.05.12z" fill="#f6b119"/><g fill="#f16822"><path d="m108.3 470.53c1.04.38 2.09.76 3.13 1.14-1.04-.38-2.09-.76-3.13-1.14z"/><path d="m111.32 471.6c.74.32 1.47.64 2.21.97-.74-.32-1.47-.64-2.21-.97z"/></g></svg>