<svg enable-background="new 0 0 436 469.5" viewBox="0 0 436 469.5" xmlns="http://www.w3.org/2000/svg"><path d="m130.4 460.9c1 .4 2.1.8 3.1 1.1-1-.3-2-.7-3.1-1.1z" fill="#f16822"/><path d="m133.4 462c.7.3 1.5.6 2.2 1-.7-.3-1.4-.7-2.2-1z" fill="#f16822"/><path d="m345.1 0c3.9 2.2 6.9 5 6.4 10.1-3 4.9-7.5 6.4-13.1 6.4-80.3-.1-160.6-.1-240.9 0-5.6 0-10.1-1.5-13.1-6.4-.7-5.1 2.3-7.9 6.2-10.1z" fill="#f6a638"/><path d="m329.6 439.2c5.8 0 11.6-.2 17.3.2 1.5.1 4.2 2.2 4.2 3.3.1 8.9-.4 17.9-.6 26.8h-265.4c-.2-3.7-.5-7.3-.7-11 2.4.3 4.8.9 7.2.9h154.9 43c8 0 12.3-4.3 12.6-12.4.1-2.6 0-5.2 0-7.8 9.1.1 18.3 0 27.5 0z" fill="#eeb535"/><path d="m106.2 56.8c-.6-7.9-1.1-15.9-1.7-23.8h181.1c-.3 5.3-.6 10.6-.9 15.9-.6 9.2-1.3 18.4-1.9 27.6-.9 12.7-1.8 25.3-2.7 38-13-.3-25.9-.8-38.8-.8-3.8 0-5.4-1.5-6.5-4.8-4.5-12.8-9.1-25.6-13.8-38.3-.5-1.4-2.1-2.5-3.2-3.8-1 1.2-2.3 2.3-2.9 3.7-4.1 11-8 22.1-12 33.1-4.5 12.3-1.8 9.6-13.7 10s-23.8.7-35.6 1.1c-1.3.1-2.6 1-4 1.5.6 1.3 1.2 2.6 1.9 3.8.4.6 1.1 1 1.7 1.5 10.5 8.2 20.9 16.4 31.5 24.4 2.6 2 3.1 3.8 2.2 6.9-4 13.1-7.8 26.3-11.5 39.5-.4 1.5.3 3.4.5 5.1 1.5-.5 3.2-.6 4.4-1.5 11.4-7.6 22.8-15.3 34.1-23.1 2.6-1.8 4.5-1.9 7.1 0 11.4 7.9 22.9 15.7 34.4 23.4 1.1.8 2.7.9 4.1 1.2.2-1.6.7-3.1.7-4.7-.1-1.3-.8-2.6-1.1-3.9-3.6-12.5-7.2-24.9-10.6-37.4-.3-1.2.1-3.5.9-4.2 9.7-7.7 19.5-15.2 29.3-22.7-.9 10.4-1.7 20.8-2.7 31.2-.9 9.8-1.2 19.7-3 29.4-5.9 32.3-17 62.7-33.6 91.1-1.7 2.8-3.1 5.9-4.6 8.8-2.9 0-5.8.1-8.7.1-15.2.3-30.4.7-45.5 1-7.3-6.2-14.6-12.5-21.8-18.7-6.7-8.8-13.4-17.7-20.1-26.5-.3-.2-.6-.5-.9-.8l.1.1c-1.4-2.7-2.8-5.4-4.3-8-9.6-17.7-16.3-36.6-18.4-56.6-2.6-24.7-3.9-49.6-5.9-74.3-.8-10.2-1.8-20.3-2.7-30.5-.4-4.7-.7-9.4-.9-14z" fill="#fdc83e"/><path d="m242.7 315.6c.7 11.3 6.4 19.7 15.4 26.1 2 1.4 4.1 2.5 6.3 3.6 12 5.7 17.8 15.2 17.4 28.4 0 2 .1 4 .1 5.9-.6 1.3-1.8 2.6-1.8 4-.2 6.9-.6 13.8 0 20.6 1.2 12.8-8.5 22.6-22.6 22.4-50.4-.4-100.8-.2-151.2-.2 0-7.3-.2-14.6-.1-22 .3-14.5 10.6-24.6 25.1-24.8 7.5-.1 14.9 0 22.4 0 20 0 39.9 0 59.9.1 3.1 0 4.3-.8 4.2-4.1-.1-20-.1-40-.1-60z" fill="#f4ab37"/><path d="m106.2 56.8c.3 4.7.6 9.4.9 14-9.1 0-18.3 0-27.4 0-17.8 0-35.7 0-53.5 0-8.9 0-12.3 3.4-12.2 12.2 0 5.9.1 11.9.6 17.8 3.7 46.3 24.5 83.2 63.4 108.4 18.4 12 38.9 20.7 58.5 30.9.5.2 1.2.1 1.8.2l-.1-.1c.3.2.6.5.9.8 6.7 8.8 13.4 17.7 20.1 26.5-4.9 13.5-15 19-29.2 15.9-3.4-.8-5.3-3-5.4-6.5-.1-3.9 2.1-6.4 5.8-7.1 2.2-.4 4.6-.2 6.8-.2 3.4 0 6.6-.5 7.5-4.5.9-3.9-1.7-5.9-4.7-7.4-5-2.5-10.1-5-15.1-7.6-18.2-9.5-37.2-17.8-54.4-28.9-38.2-24.5-60.8-60.1-68.4-104.8-2-11.5-1.9-23.4-2.1-35.1-.2-14.8 9.6-24.4 24.3-24.4 25.6-.1 51.2 0 76.8 0 1.7-.1 3.4-.1 5.1-.1z" fill="#f6a73a"/><path d="m106.4 426.4c50.4 0 100.8-.3 151.2.2 14.1.1 23.7-9.6 22.6-22.4-.6-6.8-.2-13.7 0-20.6 0-1.3 1.2-2.6 1.8-4h23.2c13.4.1 24 10.5 24.2 23.9.2 11.9.1 23.7.2 35.6-9.2 0-18.4.1-27.6.1-6.7 0-13.4 0-20.1 0-58.6 0-117.2 0-175.8 0 .1-4.3.2-8.5.3-12.8z" fill="#e99632"/><path d="m285.6 33c-60.4 0-120.7 0-181.1 0-4.4-.2-8.8-.2-13.1-.8-4.7-.6-7.1-3.7-7.2-8.5-.1-4.5.1-9.1.1-13.6 3 4.9 7.5 6.4 13.1 6.4 80.3-.1 160.6-.1 240.9 0 5.6 0 10.1-1.5 13.1-6.4.1 3.9.2 7.9.2 11.8-.1 7.4-3.3 10.7-10.8 10.9-3.2.1-6.3.1-9.5.2-15.2 0-30.5 0-45.7 0z" fill="#ea9632"/><path d="m106.1 439.2h175.8 20.1c0 2.6.1 5.2 0 7.8-.2 8.1-4.6 12.3-12.6 12.4-14.3 0-28.6 0-42.9 0-51.6 0-103.3 0-154.9 0-2.4 0-4.8-.6-7.2-.9 0-4.7.1-9.4-.1-14.1-.1-3.9 1.6-5.4 5.5-5.3 5.4.2 10.9.1 16.3.1z" fill="#fdc83e"/><path d="m217.8 315.6c0 20 0 40 .1 60 0 3.3-1.2 4.1-4.2 4.1-20-.1-39.9-.1-59.9-.1.3-4.7.2-9.4 1-14 1.3-7.9 5.8-13.9 12.7-18 3.1-1.9 6.5-3.3 9.5-5.3 9.4-6.3 15.4-14.9 16.1-26.5 8.2-.1 16.4-.2 24.7-.2z" fill="#fdc83f"/><path d="m217.8 315.6c-8.2 0-16.5 0-24.7.1-3.3-.4-6.8-.1-9.8-1.3-7.4-2.9-9.9-11.3-6.8-21.1 5.1 6.5 12.1 6.9 19.7 6.7 14.3-.4 28.7-.4 43 0 7.7.2 14.9 0 20.1-6.7 4.4 14-1.7 22.3-16.5 22.3-8.4 0-16.7 0-25 0z" fill="#fc6f30"/><path d="m259.2 293.3c-5.2 6.7-12.4 6.9-20.1 6.7-14.3-.4-28.7-.4-43 0-7.6.2-14.6-.2-19.7-6.7 1.5-2.4 3-4.8 4.5-7.2 15.2-.3 30.4-.7 45.6-1 2.9-.1 5.8-.1 8.7-.1l19.8 1.1c1.4 2.4 2.8 4.8 4.2 7.2z" fill="#fe8150"/><path d="m255 286.2c-6.6-.4-13.2-.8-19.8-1.1 1.5-2.9 2.9-5.9 4.6-8.8 16.7-28.3 27.8-58.8 33.6-91.1 1.8-9.7 2.1-19.6 3-29.4 1-10.4 1.8-20.8 2.7-31.2 1-.9 2.1-1.7 3-2.7 1.5-1.7 2.9-3.5 4.3-5.2-2.1-.7-4.2-1.4-6.3-2.1.9-12.7 1.8-25.3 2.7-38 .6-9.2 1.3-18.4 1.9-27.6.4-5.3.6-10.6.9-15.9h45.7c-.6 7.9-1.2 15.8-1.8 23.7-.3 4.7-.6 9.4-.9 14.1-.3 2.3-.7 4.5-.9 6.8-2.2 29.2-4.4 58.3-6.4 87.5-1.9 27.1-10 52.1-24.2 75.2-6.9 9.1-13.8 18.2-20.7 27.3-7.1 6.1-14.3 12.3-21.4 18.5z" fill="#eeb535"/><path d="m328.7 70.9c.3-4.7.6-9.4.9-14.2 26.7 0 53.4.5 80-.1 15.1-.3 26.4 10.2 26.4 26.5 0 26.7-4.1 52.2-16 76.3-15.7 31.9-39.6 55.7-71.2 71.7-17 8.6-34 17.1-51 25.6-1.4.7-3.2 1.1-3.9 2.2-1.3 2-2.9 4.6-2.5 6.5.4 1.7 3.2 3.3 5.2 4 2.2.7 4.8.1 7.3.2 4.5.2 7.4 3.1 7.3 7.1-.1 3.8-2.9 6.9-7.1 6.7-5.4-.2-11-.3-16.1-1.9-6.4-2-9.4-7.8-11.4-14 6.9-9.1 13.8-18.2 20.7-27.3 1.3-.4 2.7-.5 3.8-1.1 13.8-6.9 27.5-13.8 41.3-20.7 22.1-11.1 40.4-26.6 54.5-47.1 18.2-26.5 25.8-56 25.1-87.8-.2-9.4-3.3-12.7-12.6-12.7-27 0-53.8 0-80.7.1z" fill="#f6a73a"/><path d="m280.1 114.5c2.1.7 4.2 1.4 6.3 2.1-1.4 1.8-2.8 3.6-4.3 5.2-.9 1-2 1.8-3 2.7-9.8 7.5-19.6 15-29.3 22.7-.9.7-1.3 2.9-.9 4.2 3.4 12.5 7 24.9 10.6 37.4.4 1.3 1.1 2.6 1.1 3.9.1 1.5-.4 3.1-.7 4.7-1.4-.4-2.9-.5-4.1-1.2-11.5-7.7-23.1-15.4-34.4-23.4-2.7-1.9-4.5-1.8-7.1 0-11.3 7.9-22.6 15.5-34.1 23.1-1.2.8-2.9 1-4.4 1.5-.2-1.7-.9-3.6-.5-5.1 3.7-13.2 7.5-26.4 11.5-39.5.9-3.1.5-4.9-2.2-6.9-10.6-8-21-16.2-31.5-24.4-.6-.5-1.4-.9-1.7-1.5-.8-1.2-1.3-2.5-1.9-3.8 1.3-.5 2.6-1.5 4-1.5 11.9-.4 23.8-.7 35.6-1.1 11.9-.4 9.2 2.2 13.7-10 4-11 7.9-22.1 12-33.1.5-1.4 1.9-2.4 2.9-3.7 1.1 1.2 2.7 2.3 3.2 3.8 4.7 12.7 9.3 25.5 13.8 38.3 1.1 3.3 2.8 4.8 6.5 4.8 13 0 25.9.5 38.9.8z" fill="#f1ead8"/><path d="m139 241c-.3-.2-.6-.5-.9-.8.4.3.7.5.9.8z" fill="#fefdfd"/></svg>